<?xml version="1.0" encoding="utf-8"?>
<svg viewBox="468.28 478.15 107.936 123.7" xmlns="http://www.w3.org/2000/svg">
  <g transform="matrix(1, 0, 0, 1, 522.25, 540)" id="085df4f6-5831-40b3-a150-4f4eab8c9ca8">
    <path style="stroke: rgb(98,114,164); stroke-width: 0; stroke-dasharray: none; stroke-linecap: butt; stroke-dashoffset: 0; stroke-linejoin: miter; stroke-miterlimit: 4; fill: rgb(98,114,164); fill-rule: nonzero; opacity: 1;" vector-effect="non-scaling-stroke" transform=" translate(-63.97, -64.05)" d="M 117.5 33.5 L 117.8 33.3 C 117.2 32.199999999999996 116.3 31.199999999999996 115.39999999999999 30.699999999999996 L 67.1 2.9 C 66.3 2.4 65.19999999999999 2.2 63.99999999999999 2.2 C 62.79999999999999 2.2 61.699999999999996 2.5 60.89999999999999 2.9000000000000004 L 12.899999999999991 30.799999999999997 C 11.199999999999992 31.799999999999997 9.999999999999991 34.3 9.999999999999991 36.199999999999996 L 9.999999999999991 91.9 C 9.999999999999991 93 10.19999999999999 94.2 10.899999999999991 95.30000000000001 L 10.699999999999992 95.4 C 11.199999999999992 96.2 11.899999999999991 96.9 12.599999999999993 97.30000000000001 L 60.8 125.20000000000002 C 61.599999999999994 125.70000000000002 62.699999999999996 125.90000000000002 63.9 125.90000000000002 C 65.1 125.90000000000002 66.2 125.60000000000002 67 125.20000000000002 L 115 97.30000000000001 C 116.7 96.30000000000001 117.9 93.80000000000001 117.9 91.9 L 117.9 36.1 C 118 35.300000000000004 117.9 34.4 117.5 33.5 z M 64 103.5 C 42.2 103.5 24.5 85.8 24.5 64 C 24.5 42.2 42.2 24.5 64 24.5 C 78.7 24.5 91.5 32.6 98.3 44.5 L 85.3 52 C 81.1 44.5 73.1 39.5 64 39.5 C 50.5 39.5 39.5 50.5 39.5 64 C 39.5 77.5 50.5 88.5 64 88.5 C 73.1 88.5 81.1 83.5 85.3 76.1 L 98.2 83.69999999999999 C 91.4 95.49999999999999 78.6 103.49999999999999 64 103.49999999999999 z M 115 62 L 111.8 62 L 110.89999999999999 66 L 114.99999999999999 66 L 114.99999999999999 71 L 109.99999999999999 71 L 108.79999999999998 77 L 103.89999999999998 77 L 105.09999999999998 71 L 101.29999999999998 71 L 100.09999999999998 77 L 95.29999999999998 77 L 96.49999999999999 71 L 94 71 L 94 66 L 97.5 66 L 98.4 62 L 94 62 L 94 57 L 99.3 57 L 100.5 51 L 105.4 51 L 104.2 57 L 108 57 L 109.2 51 L 114 51 L 112.8 57 L 115 57 L 115 62 z M 102.3 66 L 106.1 66 L 107 62 L 103.2 62 z" stroke-linecap="round"/>
  </g>
</svg>