<?xml version="1.0" encoding="utf-8"?>
<svg viewBox="1199.276 477.27 110.48 125.463" xmlns="http://www.w3.org/2000/svg">
  <g transform="matrix(1, 0, 0, 1, 1254.515503, 540)" id="e81b0c98-e4c8-441b-87e2-0939c15596b4">
    <path style="stroke: rgb(98,114,164); stroke-width: 0; stroke-dasharray: none; stroke-linecap: butt; stroke-dashoffset: 0; stroke-linejoin: miter; stroke-miterlimit: 4; fill: rgb(98,114,164); fill-rule: nonzero; opacity: 1;" vector-effect="non-scaling-stroke" transform=" translate(-64, -63.73)" d="M 8.76 1 L 18.814999999999998 113.883 L 63.933 126.463 L 109.17699999999999 113.83699999999999 L 119.24 1 L 8.76 1 z M 98.351 26.862 L 95.004 64.467 L 95.01400000000001 64.67 L 95.00000000000001 65.137 L 95.00000000000001 65.133 L 92.62200000000001 91.42699999999999 L 92.36000000000001 93.76299999999999 L 64 101.607 L 64 101.608 L 63.978 101.62700000000001 L 35.667 93.739 L 33.75 72 L 47.632999999999996 72 L 48.617999999999995 83.054 L 64.00399999999999 87.224 L 63.99999999999999 87.232 L 63.99999999999999 87.23 L 79.443 83.001 L 81.075 65 L 48.792 65 L 48.515 61.957 L 47.884 54.828 L 47.553 51 L 82.30199999999999 51 L 83.56599999999999 37 L 30.64 37 L 30.363 33.959 L 29.733 26.828000000000003 L 29.401 23 L 98.682 23 L 98.351 26.862000000000002 z" stroke-linecap="round"/>
  </g>
</svg>