<?xml version="1.0" encoding="utf-8"?>
<svg viewBox="477.53 499.8 124.94 80.4" xmlns="http://www.w3.org/2000/svg">
  <g transform="matrix(1, 0, 0, 1, 540, 540)" id="c4dfec5e-fa20-4f5a-b604-76ea83f664cb">
    <path style="stroke: rgb(98,114,164); stroke-width: 0; stroke-dasharray: none; stroke-linecap: butt; stroke-dashoffset: 0; stroke-linejoin: miter; stroke-miterlimit: 4; fill: rgb(98,114,164); fill-rule: nonzero; opacity: 1;" vector-effect="non-scaling-stroke" transform=" translate(-63.93, -64.2)" d="M 124.8 52.1 C 120.5 49.6 114.8 49.300000000000004 110 50.7 C 109.4 45.5 106 41 102 37.800000000000004 L 100.4 36.50000000000001 L 99 38.10000000000001 C 96.3 41.20000000000001 95.5 46.400000000000006 95.9 50.400000000000006 C 96.2 53.300000000000004 97.10000000000001 56.300000000000004 98.9 58.7 C 97.5 59.5 96 60.6 94.60000000000001 61.1 C 91.80000000000001 62.1 88.7 63.1 85.7 63.1 L 79 63.1 L 79 49 L 66 49 L 66 24 L 51 24 L 51 36 L 26 36 L 26 49 L 13 49 L 13 63 L 1.8 63 L 1.6 64.5 C 1.1 70.9 1.9000000000000001 77.1 4.6 83 L 5.699999999999999 85.2 L 5.799999999999999 85.4 C 13.7 98.80000000000001 27.5 104.4 42.599999999999994 104.4 C 71.8 104.4 95.89999999999999 91.30000000000001 106.89999999999999 63.800000000000004 C 114.3 64.2 121.89999999999999 62.00000000000001 125.5 54.900000000000006 L 126.4 53.10000000000001 L 124.80000000000001 52.10000000000001 z M 28 39 L 38 39 L 38 50 L 28 50 L 28 39 z M 41.1 83.2 C 41.1 84.9 39.7 86.3 38 86.3 C 36.3 86.3 34.9 84.89999999999999 34.9 83.2 C 34.9 81.5 36.3 80.10000000000001 38 80.10000000000001 C 39.7 80.2 41.1 81.50000000000001 41.1 83.2 z M 28 52 L 38 52 L 38 63 L 28 63 L 28 52 z M 15 52 L 26 52 L 26 63 L 15 63 L 15 52 z M 42.7 102.2 C 26.900000000000002 102.10000000000001 18.400000000000002 96.8 11.400000000000002 89.8 C 13.500000000000002 89.89999999999999 15.500000000000002 90 17.300000000000004 90 C 18.900000000000006 90 20.500000000000004 90 22.000000000000004 89.9 C 25.900000000000002 89.7 29.300000000000004 89.2 32.1 88.4 C 34.4 93.7 38.6 98.60000000000001 46.1 102.2 L 42.7 102.2 z M 51 63 L 40 63 L 40 52 L 51 52 L 51 63 z M 51 50 L 40 50 L 40 39 L 51 39 L 51 50 z M 64 63 L 53 63 L 53 52 L 64 52 L 64 63 z M 64 50 L 53 50 L 53 39 L 64 39 L 64 50 z M 64 37 L 53 37 L 53 26 L 64 26 L 64 37 z M 77 63 L 66 63 L 66 52 L 77 52 L 77 63 z M 38.8 81.2 C 38.599999999999994 81.10000000000001 38.3 81 38 81 C 36.8 81 35.8 82 35.8 83.2 C 35.8 84.4 36.8 85.4 38 85.4 C 39.2 85.4 40.2 84.4 40.2 83.2 C 40.2 82.9 40.1 82.60000000000001 40 82.4 C 39.8 82.7 39.6 82.9 39.2 82.9 C 38.7 82.9 38.300000000000004 82.5 38.300000000000004 82 C 38.400000000000006 81.6 38.6 81.3 38.800000000000004 81.2 z" stroke-linecap="round"/>
  </g>
</svg>