<?xml version="1.0" encoding="utf-8"?>
<svg viewBox="476.883 476.883 126.236 126.234" xmlns="http://www.w3.org/2000/svg">
  <g transform="matrix(1, 0, 0, 1, 540, 540)" id="127f6c85-385e-4ca3-8e6d-5003a3e75f4f">
    <path style="stroke: rgb(98,114,164); stroke-width: 0; stroke-dasharray: none; stroke-linecap: butt; stroke-dashoffset: 0; stroke-linejoin: miter; stroke-miterlimit: 4; fill: rgb(98,114,164); fill-rule: nonzero; opacity: 1;" vector-effect="non-scaling-stroke" transform=" translate(-64, -64)" d="M 124.737 58.378 L 69.621 3.264 C 66.449 0.08999999999999986 61.300999999999995 0.08999999999999986 58.123999999999995 3.264 L 46.68 14.71 L 61.198 29.228 C 64.57300000000001 28.089000000000002 68.441 28.853 71.13 31.542 C 73.833 34.248000000000005 74.591 38.149 73.42399999999999 41.535000000000004 L 87.416 55.528000000000006 C 90.801 54.361000000000004 94.708 55.11500000000001 97.41 57.82300000000001 C 101.19 61.60000000000001 101.19 67.72300000000001 97.41 71.50200000000001 C 95.59582612965805 73.31705270770681 93.13475079904231 74.33681261224878 90.5685 74.33681261224878 C 88.00224920095769 74.33681261224878 85.54117387034195 73.31705270770681 83.727 71.50200000000001 C 80.96736313572546 68.74065726319796 80.13722573174333 64.59154770153718 81.622 60.981000000000016 L 68.574 47.933 L 68.572 82.274 C 69.51868164615922 82.74020325708055 70.38302006173825 83.35763609165596 71.131 84.102 C 74.909 87.879 74.909 94 71.131 97.785 C 67.352 101.562 61.227000000000004 101.562 57.452 97.785 C 53.674 94.00099999999999 53.674 87.88 57.452 84.102 C 58.35714530822694 83.1954221276498 59.433742429555544 82.47814396977064 60.619 81.992 L 60.619 47.333 C 59.432783015763256 46.848207062657 58.355870871973345 46.13037898070547 57.452 45.222 C 54.589999999999996 42.362 53.900999999999996 38.162 55.369 34.646 L 41.056 20.333 L 3.264 58.123 C 0.08906501616868123 61.29892819301446 0.08906501616868034 66.44707180698553 3.264 69.62299999999999 L 58.381 124.737 C 61.555 127.911 66.701 127.911 69.88 124.737 L 124.738 69.87899999999999 C 127.91222147927905 66.70222422173343 127.91177386598612 61.55422373971814 124.737 58.378 z" stroke-linecap="round"/>
  </g>
</svg>