<?xml version="1.0" encoding="utf-8"?>
<svg viewBox="485.032 477.75 109.936 124.494" xmlns="http://www.w3.org/2000/svg">
  <g transform="matrix(1, 0, 0, 1, 540, 540)" id="9b0d4b86-ebf1-4725-a01d-27f12c9ae4c1">
    <path style="stroke: rgb(98,114,164); stroke-width: 0; stroke-dasharray: none; stroke-linecap: butt; stroke-dashoffset: 0; stroke-linejoin: miter; stroke-miterlimit: 4; fill: rgb(98,114,164); fill-rule: nonzero; opacity: 1;" vector-effect="non-scaling-stroke" transform=" translate(-64, -64.25)" d="M 9.032 2 L 19.037 114.093 L 63.933 126.494 L 108.953 114.107 L 118.968 2 L 9.032 2 z M 98.158 28.539 L 97.531 35.711 L 97.255 39 L 44.59 39 L 45.847 53 L 96.003 53 L 95.667 56.471000000000004 L 92.434 92.59 L 92.196 94.86 L 64 102.609 L 64 102.61099999999999 L 63.966 102.62899999999999 L 35.789 95.20599999999999 L 33.876 74 L 47.690999999999995 74 L 48.669999999999995 84.919 L 63.957 89 L 64 89 L 64 88.454 L 79.355 84.579 L 80.959 67 L 33.261 67 L 29.878000000000004 28.883000000000003 L 29.549 25 L 98.488 25 L 98.158 28.539 z" stroke-linecap="round"/>
  </g>
</svg>