<?xml version="1.0" encoding="UTF-8" standalone="no"?>
<!-- Created with Inkscape (http://www.inkscape.org/) -->

<svg
   width="100mm"
   height="100mm"
   viewBox="0 0 100 100"
   version="1.1"
   id="svg5"
   xml:space="preserve"
   inkscape:export-filename="bitmap.svg"
   inkscape:export-xdpi="96"
   inkscape:export-ydpi="96"
   xmlns:inkscape="http://www.inkscape.org/namespaces/inkscape"
   xmlns:sodipodi="http://sodipodi.sourceforge.net/DTD/sodipodi-0.dtd"
   xmlns="http://www.w3.org/2000/svg"
   xmlns:svg="http://www.w3.org/2000/svg"><sodipodi:namedview
     id="namedview7"
     pagecolor="#ffffff"
     bordercolor="#000000"
     borderopacity="0.25"
     inkscape:showpageshadow="2"
     inkscape:pageopacity="0.0"
     inkscape:pagecheckerboard="0"
     inkscape:deskcolor="#d1d1d1"
     inkscape:document-units="mm"
     showgrid="false" /><defs
     id="defs2" /><g
     inkscape:label="Camada 1"
     inkscape:groupmode="layer"
     id="layer1"
     transform="translate(-55.887502,-88.195188)"><path
       d="M 135.05418,88.195192 H 76.720839 c -11.504174,0 -20.833339,9.329165 -20.833339,20.833338 v 58.33333 c 0,11.50417 9.329165,20.83334 20.833339,20.83334 h 58.333341 c 11.50833,0 20.83332,-9.32917 20.83332,-20.83334 v -58.33333 c 0,-11.504173 -9.32499,-20.833338 -20.83332,-20.833338 z m -18.60833,81.624998 c -1.68752,0.32504 -2.22501,-0.71244 -2.22501,-1.6 v -9.14583 c 0,-3.1125 -1.09166,-5.13749 -2.29167,-6.17083 7.42501,-0.82504 15.22501,-3.64583 15.22501,-16.44583 0,-3.64167 -1.3,-6.61668 -3.42917,-8.94585 0.34173,-0.84173 1.48331,-4.23332 -0.32913,-8.82083 0,0 -2.79585,-0.89591 -9.15835,3.41668 -2.66666,-0.75008 -5.51666,-1.11244 -8.35,-1.12914 -2.83332,0.0125 -5.68332,0.37922 -8.345826,1.12079 -6.366661,-4.31249 -9.166661,-3.41666 -9.166661,-3.41666 -1.808331,4.59167 -0.666614,7.97916 -0.320788,8.82501 -2.133338,2.33332 -3.433338,5.30415 -3.433338,8.94582 0,12.76667 7.779165,15.62917 15.187496,16.47502 -0.954173,0.83338 -1.816661,2.3 -2.116661,4.45833 -1.904174,0.85008 -6.724993,2.32083 -9.7,-2.77501 0,0 -1.762504,-3.2 -5.112504,-3.4375 0,0 -3.25,-0.0409 -0.229134,2.02917 0,0 2.187512,1.02504 3.704173,4.87501 0,0 1.929165,5.95 11.2,3.93332 v 6.20417 c 0,0.87921 -0.53748,1.91251 -2.2,1.60416 -13.25,-4.40416 -22.8,-16.9 -22.8,-31.625 0,-18.4125 14.924992,-33.33334 33.333343,-33.33334 18.40833,0 33.33332,14.92084 33.33332,33.33334 0,14.72084 -9.5375,27.21251 -22.77499,31.625 z"
       id="path4724"
       style="fill:#6272a4;fill-opacity:1;stroke-width:4.16666"
       inkscape:export-filename="path4724.svg"
       inkscape:export-xdpi="96"
       inkscape:export-ydpi="96" /></g></svg>
