<?xml version="1.0" encoding="UTF-8" standalone="no"?>
<!-- Created with Inkscape (http://www.inkscape.org/) -->

<svg
   width="100mm"
   height="100mm"
   viewBox="0 0 100 100"
   version="1.1"
   id="svg5"
   xml:space="preserve"
   inkscape:export-filename="bitmap.svg"
   inkscape:export-xdpi="96"
   inkscape:export-ydpi="96"
   xmlns:inkscape="http://www.inkscape.org/namespaces/inkscape"
   xmlns:sodipodi="http://sodipodi.sourceforge.net/DTD/sodipodi-0.dtd"
   xmlns="http://www.w3.org/2000/svg"
   xmlns:svg="http://www.w3.org/2000/svg"><sodipodi:namedview
     id="namedview7"
     pagecolor="#ffffff"
     bordercolor="#000000"
     borderopacity="0.25"
     inkscape:showpageshadow="2"
     inkscape:pageopacity="0.0"
     inkscape:pagecheckerboard="0"
     inkscape:deskcolor="#d1d1d1"
     inkscape:document-units="mm"
     showgrid="false" /><defs
     id="defs2" /><g
     inkscape:label="Camada 1"
     inkscape:groupmode="layer"
     id="layer1"
     transform="translate(-48.820192,-101.82501)"><g
       style="clip-rule:evenodd;fill:#6272a4;fill-opacity:1;fill-rule:evenodd;stroke-linejoin:round;stroke-miterlimit:1.41421"
       id="g4548"
       transform="matrix(4.1666667,0,0,4.1666667,48.820192,101.825)"
       inkscape:export-filename="g4548.svg"
       inkscape:export-xdpi="96"
       inkscape:export-ydpi="96"><path
         id="telegram-3"
         d="M 19,24 H 5 C 2.239,24 0,21.761 0,19 V 5 C 0,2.239 2.239,0 5,0 h 14 c 2.762,0 5,2.239 5,5 v 14 c 0,2.761 -2.238,5 -5,5 z m -2.744,-5.148 c 0.215,0.153 0.491,0.191 0.738,0.097 0.246,-0.093 0.428,-0.304 0.483,-0.56 0.579,-2.722 1.985,-9.614 2.512,-12.09 C 20.028,6.112 19.962,5.918 19.816,5.793 19.669,5.669 19.465,5.633 19.284,5.7 16.489,6.734 7.88,9.964 4.361,11.267 4.138,11.349 3.993,11.564 4,11.8 c 0.008,0.235 0.167,0.44 0.395,0.509 1.578,0.471 3.65,1.128 3.65,1.128 0,0 0.967,2.924 1.472,4.41 0.063,0.187 0.21,0.334 0.402,0.384 0.193,0.05 0.397,-0.002 0.541,-0.138 0.811,-0.765 2.064,-1.948 2.064,-1.948 0,0 2.381,1.746 3.732,2.707 z m -7.34,-5.784 1.119,3.692 0.249,-2.338 c 0,0 4.324,-3.9 6.79,-6.124 C 17.146,8.233 17.156,8.124 17.096,8.047 17.036,7.97 16.927,7.952 16.845,8.004 13.988,9.829 8.916,13.068 8.916,13.068 Z"
         style="fill:#6272a4;fill-opacity:1" /></g></g></svg>
