<?xml version="1.0" encoding="UTF-8" standalone="no"?>
<!-- Created with Inkscape (http://www.inkscape.org/) -->

<svg
   width="100.00001mm"
   height="100.00001mm"
   viewBox="0 0 100.00001 100.00001"
   version="1.1"
   id="svg5"
   xml:space="preserve"
   inkscape:export-filename="bitmap.svg"
   inkscape:export-xdpi="96"
   inkscape:export-ydpi="96"
   xmlns:inkscape="http://www.inkscape.org/namespaces/inkscape"
   xmlns:sodipodi="http://sodipodi.sourceforge.net/DTD/sodipodi-0.dtd"
   xmlns="http://www.w3.org/2000/svg"
   xmlns:svg="http://www.w3.org/2000/svg"><sodipodi:namedview
     id="namedview7"
     pagecolor="#ffffff"
     bordercolor="#000000"
     borderopacity="0.25"
     inkscape:showpageshadow="2"
     inkscape:pageopacity="0.0"
     inkscape:pagecheckerboard="0"
     inkscape:deskcolor="#d1d1d1"
     inkscape:document-units="mm"
     showgrid="false" /><defs
     id="defs2" /><g
     inkscape:label="Camada 1"
     inkscape:groupmode="layer"
     id="layer1"
     transform="translate(-57.906732,-89.709615)"><path
       d="m 121.3776,112.57623 c -3.5126,-0.15905 -4.57087,-0.19212 -13.47087,-0.19212 -8.899998,0 -9.954168,0.0315 -13.466608,0.19212 -9.04174,0.4126 -13.25418,4.69591 -13.66252,13.66252 -0.16221,3.5167 -0.2,4.57087 -0.2,13.47087 0,8.9 0.0315,9.95417 0.19527,13.47087 0.4126,8.94992 4.60835,13.24992 13.66252,13.66252 3.51244,0.15905 4.57087,0.19527 13.470868,0.19527 8.90409,0 9.95827,-0.0315 13.47086,-0.19212 9.04158,-0.4126 13.24992,-4.70426 13.66237,-13.66252 0.15905,-3.5167 0.19212,-4.57087 0.19212,-13.47087 0,-8.9 -0.0315,-9.95417 -0.19212,-13.46661 -0.4126,-8.97087 -4.62914,-13.25827 -13.66237,-13.67087 z m -13.47087,44.25008 c -9.454168,0 -17.116688,-7.66252 -17.116688,-17.11669 0,-9.45417 7.66661,-17.11669 17.116688,-17.11669 9.44992,0 17.11669,7.66252 17.11669,17.11669 0,9.45417 -7.66252,17.11669 -17.11669,17.11669 z m 17.79575,-30.90834 c -2.20835,0 -4,-1.79166 -4,-4 0,-2.20835 1.79165,-4 4,-4 2.20834,0 4,1.79165 4,4 0,2.20834 -1.79166,4 -4,4 z m -6.68331,13.79165 c 0,6.13748 -4.97496,11.11244 -11.11244,11.11244 -6.13748,0 -11.112598,-4.97496 -11.112598,-11.11244 0,-6.13748 4.975118,-11.1126 11.112598,-11.1126 6.13748,0 11.11244,4.97512 11.11244,11.1126 z M 137.07334,89.709617 H 78.740122 c -11.50426,0 -20.83339,9.32913 -20.83339,20.833393 v 58.33322 c 0,11.50426 9.32913,20.83339 20.83339,20.83339 h 58.333218 c 11.50835,0 20.83339,-9.32913 20.83339,-20.83339 v -58.33322 c 0,-11.504263 -9.32504,-20.833393 -20.83339,-20.833393 z m 3.96678,63.741573 c -0.54961,12.12095 -7.29591,18.83764 -19.38756,19.39182 -3.55843,0.1622 -4.69166,0.2 -13.74583,0.2 -9.054168,0 -10.183308,-0.0315 -13.741728,-0.2 -12.1167,-0.55433 -18.83323,-7.28347 -19.39166,-19.39182 -0.1622,-3.55417 -0.2,-4.6874 -0.2,-13.74157 0,-9.05008 0.0315,-10.18756 0.2,-13.74173 0.55906,-12.1167 7.28331,-18.83748 19.39166,-19.3874 3.55842,-0.16693 4.68756,-0.20473 13.741728,-0.20473 9.05417,0 10.1874,0.0315 13.74583,0.2 12.11669,0.55433 18.84582,7.29591 19.38756,19.38756 0.1622,3.55827 0.2,4.69575 0.2,13.74583 0,9.05417 -0.0315,10.1874 -0.2,13.74157 z"
       id="path4665"
       style="fill:#6272a4;fill-opacity:1;stroke-width:4.16666"
       inkscape:export-filename="path4665.svg"
       inkscape:export-xdpi="96"
       inkscape:export-ydpi="96" /></g></svg>
