<?xml version="1.0" encoding="UTF-8" standalone="no"?>
<!-- Created with Inkscape (http://www.inkscape.org/) -->

<svg
   width="100mm"
   height="99.999992mm"
   viewBox="0 0 100 99.999992"
   version="1.1"
   id="svg5"
   xml:space="preserve"
   inkscape:export-filename="bitmap.svg"
   inkscape:export-xdpi="96"
   inkscape:export-ydpi="96"
   xmlns:inkscape="http://www.inkscape.org/namespaces/inkscape"
   xmlns:sodipodi="http://sodipodi.sourceforge.net/DTD/sodipodi-0.dtd"
   xmlns="http://www.w3.org/2000/svg"
   xmlns:svg="http://www.w3.org/2000/svg"><sodipodi:namedview
     id="namedview7"
     pagecolor="#ffffff"
     bordercolor="#000000"
     borderopacity="0.25"
     inkscape:showpageshadow="2"
     inkscape:pageopacity="0.0"
     inkscape:pagecheckerboard="0"
     inkscape:deskcolor="#d1d1d1"
     inkscape:document-units="mm"
     showgrid="false" /><defs
     id="defs2" /><g
     inkscape:label="Camada 1"
     inkscape:groupmode="layer"
     id="layer1"
     transform="translate(-49.676061,-86.442022)"><path
       d="m 99.82614,108.68785 c -15.145828,0 -27.46252,12.31669 -27.470868,27.45417 -0.0041,6.17921 1.808348,10.80834 4.85008,15.65008 l -2.77512,10.13338 10.391656,-2.72504 c 4.654172,2.76252 9.1,4.42079 14.979212,4.42079 15.13338,0 27.46252,-12.31669 27.46677,-27.45827 0.0124,-15.17086 -12.25843,-27.47086 -27.44173,-27.47511 z m 16.14992,39.26251 c -0.68819,1.92914 -3.9874,3.68756 -5.57071,3.92504 -1.42047,0.2126 -3.22094,0.29922 -5.2,-0.32441 -1.2,-0.37953 -2.73748,-0.88819 -4.70425,-1.73748 -8.279212,-3.57496 -13.687404,-11.91244 -14.1,-12.46252 -0.4126,-0.5496 -3.370868,-4.47496 -3.370868,-8.53748 0,-4.06252 2.133388,-6.05827 2.88756,-6.8874 0.75748,-0.83307 1.65008,-1.04095 2.2,-1.04095 l 1.583308,0.0315 c 0.50866,0.0315 1.1874,-0.19212 1.858424,1.41733 0.688188,1.65417 2.33748,5.71669 2.545828,6.12913 0.204724,0.4126 0.346456,0.89606 0.06299,1.44567 -0.275592,0.54961 -0.4126,0.89607 -0.825196,1.37481 l -1.237796,1.44566 c -0.4126,0.4126 -0.840944,0.85827 -0.362204,1.68331 0.483464,0.8252 2.13748,3.52929 4.591652,5.71669 3.154172,2.8126 5.812442,3.68331 6.637482,4.09591 0.8252,0.4126 1.30866,0.34646 1.78756,-0.20787 0.48346,-0.54961 2.06252,-2.40835 2.61244,-3.23748 0.54961,-0.82835 1.10079,-0.68819 1.85842,-0.4126 0.75748,0.27559 4.8167,2.2707 5.64158,2.6874 0.8252,0.4126 1.3748,0.62047 1.58346,0.9622 0.20473,0.35433 0.20473,2.00835 -0.48346,3.93748 z M 128.84283,86.442017 H 70.509444 c -11.504092,0 -20.833384,9.329292 -20.833384,20.833383 v 58.33339 c 0,11.50409 9.329292,20.83322 20.833384,20.83322 h 58.333386 c 11.50835,0 20.83323,-9.32913 20.83323,-20.83322 V 107.2754 c 0,-11.504091 -9.32488,-20.833383 -20.83323,-20.833383 z M 99.813696,169.20044 c -5.529288,0 -10.975116,-1.3874 -15.8,-4.02094 l -17.512596,4.5959 4.68756,-17.11669 c -2.891656,-5.00835 -4.4126,-10.69165 -4.408348,-16.51669 0.0084,-18.21654 14.82504,-33.03323 33.033384,-33.03323 8.837484,0.004 17.133234,3.44583 23.370714,9.6874 6.23748,6.24173 9.67086,14.54583 9.66677,23.37087 -0.008,18.21669 -14.82929,33.03338 -33.037484,33.03338 z"
       id="path3235"
       style="fill:#6272a4;fill-opacity:1;stroke-width:4.16668" /></g></svg>
