<?xml version="1.0" encoding="UTF-8" standalone="no"?>
<!-- Created with Inkscape (http://www.inkscape.org/) -->

<svg
   width="99.999992mm"
   height="99.999985mm"
   viewBox="0 0 99.999992 99.999985"
   version="1.1"
   id="svg5"
   xml:space="preserve"
   inkscape:export-filename="bitmap.svg"
   inkscape:export-xdpi="96"
   inkscape:export-ydpi="96"
   xmlns:inkscape="http://www.inkscape.org/namespaces/inkscape"
   xmlns:sodipodi="http://sodipodi.sourceforge.net/DTD/sodipodi-0.dtd"
   xmlns="http://www.w3.org/2000/svg"
   xmlns:svg="http://www.w3.org/2000/svg"><sodipodi:namedview
     id="namedview7"
     pagecolor="#ffffff"
     bordercolor="#000000"
     borderopacity="0.25"
     inkscape:showpageshadow="2"
     inkscape:pageopacity="0.0"
     inkscape:pagecheckerboard="0"
     inkscape:deskcolor="#d1d1d1"
     inkscape:document-units="mm"
     showgrid="false" /><defs
     id="defs2" /><g
     inkscape:label="Camada 1"
     inkscape:groupmode="layer"
     id="layer1"
     transform="translate(-52.858655,-91.224042)"><path
       d="M 132.02531,91.224039 H 73.691993 c -11.504174,0 -20.833339,9.329161 -20.833339,20.833341 v 58.33332 c 0,11.50417 9.329165,20.83334 20.833339,20.83334 h 58.333317 c 11.50835,0 20.83334,-9.32917 20.83334,-20.83334 v -58.33332 c 0,-11.50418 -9.32499,-20.833341 -20.83334,-20.833341 z M 86.191993,170.3907 h -12.5 v -45.83332 h 12.5 z m -6.25,-51.11666 c -4.025008,0 -7.29167,-3.29167 -7.29167,-7.35 0,-4.05833 3.266662,-7.35 7.29167,-7.35 4.024992,0 7.291669,3.29167 7.291669,7.35 0,4.05833 -3.262504,7.35 -7.291669,7.35 z m 56.249997,51.11666 h -12.5 v -23.35 c 0,-14.03332 -16.66668,-12.97083 -16.66668,0 v 23.35 H 94.525315 v -45.83332 h 12.499995 v 7.35415 c 5.81668,-10.77499 29.16668,-11.57083 29.16668,10.31667 z"
       id="path4606"
       style="fill:#6272a4;fill-opacity:1;stroke-width:4.16666"
       inkscape:export-filename="path4606.svg"
       inkscape:export-xdpi="96"
       inkscape:export-ydpi="96" /></g></svg>
