<?xml version="1.0" encoding="utf-8"?>
<svg viewBox="493.969 477.587 92.061 124.827" xmlns="http://www.w3.org/2000/svg">
  <g transform="matrix(1, 0, 0, 1, 540, 540)" id="6e1c7136-5556-47c3-9f3b-439de95f05f7">
    <path style="stroke: rgb(98,114,164); stroke-width: 0; stroke-dasharray: none; stroke-linecap: butt; stroke-dashoffset: 0; stroke-linejoin: miter; stroke-miterlimit: 4; fill: rgb(98,114,164); fill-rule: nonzero; opacity: 1;" vector-effect="non-scaling-stroke" transform=" translate(-64, -64)" d="M 47.617 98.12 C 28.424999999999997 103.482 59.294 114.559 83.732 104.089 C 79.729 102.533 76.858 100.738 76.858 100.738 C 65.961 102.798 60.906000000000006 102.96 51.014 101.83 C 42.85 100.895 47.617000000000004 98.12 47.617000000000004 98.12 z M 80.806 87.66 C 66.362 90.439 58.019 90.35 47.452 89.25999999999999 C 39.281 88.41499999999999 44.629999999999995 84.45499999999998 44.629999999999995 84.45499999999998 C 23.492999999999995 91.47099999999999 56.39699999999999 99.43199999999999 85.939 90.79099999999998 C 82.79899999999999 89.68499999999999 80.806 87.65999999999998 80.806 87.65999999999998 z M 92.125 27.084999999999994 C 92.126 27.084999999999994 49.394 37.75399999999999 69.80199999999999 61.27199999999999 C 75.826 68.207 68.222 74.442 68.222 74.442 C 68.222 74.442 83.511 66.55099999999999 76.491 56.66499999999999 C 69.932 47.44999999999999 64.904 42.87199999999999 92.125 27.084999999999994 z M 102.123 108.229 C 102.123 108.229 105.652 111.139 98.235 113.388 C 84.133 117.66000000000001 39.528999999999996 118.94800000000001 27.14 113.55900000000001 C 22.69 111.62100000000001 31.039 108.93400000000001 33.666 108.36700000000002 C 36.404999999999994 107.77400000000002 37.968999999999994 107.88200000000002 37.968999999999994 107.88200000000002 C 33.016999999999996 104.39500000000002 5.955999999999996 114.73200000000001 24.226999999999993 117.69700000000002 C 74.04799999999999 125.77300000000002 115.04399999999998 114.06000000000002 102.12299999999999 108.22900000000001 z M 85 77.896 C 87.395 76.262 90.703 74.843 90.703 74.843 C 90.703 74.843 81.279 76.528 71.89 77.31700000000001 C 60.396 78.281 48.067 78.471 41.878 77.643 C 27.226 75.684 49.911 70.295 49.911 70.295 C 49.911 70.295 41.099000000000004 69.699 30.267000000000003 74.93900000000001 C 17.455 81.134 61.958 83.958 85 77.896 z M 90.609 93.041 C 90.50099999999999 93.331 90.14099999999999 93.657 90.14099999999999 93.657 C 121.41399999999999 85.43599999999999 109.916 64.678 94.963 69.93199999999999 C 93.651 70.39599999999999 92.963 71.475 92.963 71.475 C 92.963 71.475 93.79199999999999 71.14099999999999 95.64099999999999 70.755 C 103.19999999999999 69.17999999999999 114.02999999999999 80.874 90.609 93.041 z M 64.181 70.069 C 59.567 59.64 43.92099999999999 50.516000000000005 64.188 34.510000000000005 C 89.459 14.563 76.492 1.587 76.492 1.587 C 81.72200000000001 22.195 58.041000000000004 28.419999999999998 49.49300000000001 41.254000000000005 C 43.67200000000001 49.999 52.35000000000001 59.396 64.18100000000001 70.069 z M 91.455 121.81700000000001 C 72.268 125.429 48.601 125.00800000000001 34.568 122.691 C 34.568 122.691 37.442 125.071 52.214 126.022 C 74.69 127.459 109.214 125.22200000000001 110.03 114.58600000000001 C 110.031 114.58600000000001 108.46000000000001 118.61800000000001 91.455 121.81700000000001 z" stroke-linecap="round"/>
  </g>
</svg>