<?xml version="1.0" encoding="utf-8"?>
<svg viewBox="477.5 477.5 125 125" xmlns="http://www.w3.org/2000/svg">
  <g transform="matrix(1, 0, 0, 1, 540, 540)" id="67bb69dd-f07a-4a6c-ab9a-934e0ed977ad">
    <path style="stroke: rgb(98,114,164); stroke-width: 0; stroke-dasharray: none; stroke-linecap: butt; stroke-dashoffset: 0; stroke-linejoin: miter; stroke-miterlimit: 4; fill: rgb(98,114,164); fill-rule: nonzero; opacity: 1;" vector-effect="non-scaling-stroke" transform=" translate(-64.5, -63.5)" d="M 2 1 L 2 126 L 127 126 L 127 1 L 2 1 z M 68.119 107.513 C 66.274 111.262 62.752 113.72500000000001 58.671 114.914 C 52.4 116.354 46.402 115.533 41.94 112.855 C 38.954 111.02300000000001 36.622 108.203 35.039 104.95400000000001 L 44.559 99.12400000000001 C 44.641999999999996 99.159 44.891999999999996 99.611 45.226 100.19500000000001 C 46.44 102.22900000000001 47.487 103.66900000000001 49.545 104.68 C 51.567 105.37 56.006 105.811 57.72 102.253 C 58.766999999999996 100.443 58.434 94.625 58.434 88.188 C 58.433 78.073 58.48 68 58.48 58 L 70.189 58 C 70.189 69 70.249 79.418 70.189 90.152 C 70.214 96.732 70.785 102.598 68.119 107.513 z M 116.693 104.20500000000001 C 112.62299999999999 118.12700000000001 89.931 118.57900000000001 80.863 109.38100000000001 C 78.947 107.21600000000001 77.746 106.08500000000001 76.603 103.58600000000001 C 81.422 100.81400000000001 81.422 100.81400000000001 86.11099999999999 98.10100000000001 C 88.65799999999999 102.01600000000002 91.01299999999999 104.16900000000001 95.24999999999999 105.05000000000001 C 100.99799999999999 105.75200000000001 106.78099999999999 103.77700000000002 105.48399999999998 97.67200000000001 C 104.15099999999998 92.686 93.71399999999998 91.47300000000001 86.61099999999998 86.141 C 79.39999999999998 81.298 77.70999999999998 69.53 83.63599999999998 62.806000000000004 C 85.61099999999998 60.319 88.97899999999998 58.46300000000001 92.51299999999998 57.571000000000005 L 96.20099999999998 57.09400000000001 C 103.28199999999998 56.95100000000001 107.70799999999998 58.821000000000005 110.95699999999998 62.44900000000001 C 111.86099999999998 63.36500000000001 112.59899999999998 64.35300000000001 113.97899999999998 66.49400000000001 C 110.20699999999998 68.89800000000001 110.21899999999998 68.87500000000001 104.81599999999999 72.37300000000002 C 103.66199999999999 69.88700000000001 101.74699999999999 68.32700000000001 99.72299999999998 67.64900000000002 C 96.58099999999999 66.69700000000002 92.61899999999999 67.73200000000001 91.79699999999998 71.05200000000002 C 91.51199999999999 72.07500000000002 91.57099999999998 73.02700000000002 92.02399999999999 74.71700000000003 C 93.29699999999998 77.62000000000003 97.56899999999999 78.88200000000003 101.40099999999998 80.64300000000003 C 112.43199999999999 85.11700000000003 116.15699999999998 89.91400000000003 117.07299999999998 95.62400000000002 C 117.95499999999998 100.54000000000002 116.85999999999999 103.72900000000003 116.69299999999998 104.20500000000003 z" stroke-linecap="round"/>
  </g>
</svg>