<?xml version="1.0" encoding="utf-8"?>
<svg viewBox="486.5 479.541 107.001 120.919" xmlns="http://www.w3.org/2000/svg">
  <g transform="matrix(1, 0, 0, 1, 540, 540)" id="4d814851-a447-4a0e-943f-36906b9bf487">
    <path style="stroke: rgb(98,114,164); stroke-width: 0; stroke-dasharray: none; stroke-linecap: butt; stroke-dashoffset: 0; stroke-linejoin: miter; stroke-miterlimit: 4; fill: rgb(98,114,164); fill-rule: nonzero; opacity: 1;" vector-effect="non-scaling-stroke" transform=" translate(-63.5, -64)" d="M 112.678 30.334 L 68.535 4.729 C 65.75399999999999 3.145 62.111 3.145 59.30799999999999 4.729 L 14.82 30.334 C 11.951 31.985 10 35.088 10 38.407 L 10 89.549 C 10 92.86800000000001 11.992 95.97200000000001 14.862 97.632 L 26.591 104.32000000000001 C 32.218 107.09200000000001 33.777 107.09200000000001 36.337 107.09200000000001 C 44.67100000000001 107.09200000000001 48.999 102.05300000000001 48.999 93.26400000000001 L 48.999 42.77400000000001 C 49 42.061 49.445 41 48.744 41 L 43.122 41 C 42.41 41 41 42.061 41 42.773 L 41 93.263 C 41 97.159 37.384 101.036 30.798000000000002 97.74300000000001 L 18.676 90.73 C 18.253999999999998 90.5 18 90.037 18 89.549 L 18 38.407 C 18 37.925 18.463 37.440999999999995 18.891 37.193999999999996 L 63.269 11.632999999999996 C 63.711389190582125 11.39797481366281 64.24161080941786 11.39797481366281 64.684 11.632999999999996 L 108.64699999999999 37.187999999999995 C 109.068 37.440999999999995 109.00099999999999 37.91 109.00099999999999 38.407 L 109.00099999999999 89.549 C 109.00099999999999 90.037 109.09299999999999 90.512 108.678 90.747 L 64.54499999999999 116.32300000000001 C 64.16699999999999 116.55000000000001 63.67499999999999 116.55000000000001 63.25999999999999 116.32300000000001 L 51.94299999999999 109.57400000000001 C 51.60199999999999 109.37600000000002 51.19099999999999 109.305 50.86299999999999 109.48800000000001 C 47.71799999999999 111.27100000000002 47.13399999999999 111.50800000000001 44.18399999999999 112.53100000000002 C 43.456999999999994 112.78400000000002 42.38499999999999 113.22300000000001 44.59199999999999 114.46000000000002 L 59.38999999999999 123.21400000000003 C 60.80271247489589 124.03018787215906 62.40546110224937 124.45993282367239 64.03699999999999 124.46000000000002 C 65.67490066846518 124.46266067225007 67.28447232149252 124.03284363845837 68.70299999999999 123.21400000000003 L 112.67899999999999 97.63200000000003 C 115.54999999999998 95.96000000000004 117.00099999999999 92.86800000000004 117.00099999999999 89.54900000000004 L 117.00099999999999 38.407 C 116.99999999999999 35.087999999999994 115.54899999999999 31.992999999999995 112.678 30.333999999999996 z M 77.727 81.445 C 66 81.445 63.418000000000006 78.21 62.557 72.37899999999999 C 62.455000000000005 71.75099999999999 61.923 70.99999999999999 61.283 70.99999999999999 L 55.553 70.99999999999999 C 54.843999999999994 70.99999999999999 54.272999999999996 71.85999999999999 54.272999999999996 72.56599999999999 C 54.272999999999996 80.03199999999998 58.333 89.07799999999999 77.727 89.07799999999999 C 91.765 89.07799999999999 99.815 83.62299999999999 99.815 73.969 C 99.815 64.39699999999999 93.348 61.88499999999999 79.733 60.083 C 65.971 58.263999999999996 64.57300000000001 57.345 64.57300000000001 54.120999999999995 C 64.57300000000001 51.462999999999994 65.757 47.91799999999999 75.947 47.91799999999999 C 85.051 47.91799999999999 88.40700000000001 49.87199999999999 89.788 56.00899999999999 C 89.907 56.58599999999999 90.434 56.99999999999999 91.029 56.99999999999999 L 96.783 56.99999999999999 C 97.137 56.99999999999999 97.474 56.85699999999999 97.722 56.60399999999999 C 97.963 56.331999999999994 98.089 55.99099999999999 98.05799999999999 55.62499999999999 C 97.16499999999999 45.05599999999999 90.145 40.13099999999999 75.946 40.13099999999999 C 63.314 40.13099999999999 55.78 45.46499999999999 55.78 54.40599999999999 C 55.78 64.10399999999998 63.277 66.78399999999999 75.402 67.98299999999999 C 89.907 69.40499999999999 91.035 71.52499999999999 91.035 74.37799999999999 C 91.035 79.33399999999999 87.057 81.445 77.727 81.445 z" stroke-linecap="round"/>
  </g>
</svg>